<?xml version="1.0" encoding="UTF-8"?>
<svg height="128px" viewBox="0 0 128 128" width="128px" xmlns="http://www.w3.org/2000/svg" xmlns:xlink="http://www.w3.org/1999/xlink">
    <linearGradient id="a" gradientUnits="userSpaceOnUse" x1="20.00003" x2="107.999908" y1="68" y2="68">
        <stop offset="0" stop-color="#1a1a1a"/>
        <stop offset="0.05" stop-color="#4d4d4d"/>
        <stop offset="0.1" stop-color="#333333"/>
        <stop offset="0.900723" stop-color="#333333"/>
        <stop offset="0.946749" stop-color="#4d4d4d"/>
        <stop offset="1"/>
    </linearGradient>
    <path d="m 28 16 h 72 c 4.417969 0 8 3.582031 8 8 v 88 c 0 4.417969 -3.582031 8 -8 8 h -72 c -4.417969 0 -8 -3.582031 -8 -8 v -88 c 0 -4.417969 3.582031 -8 8 -8 z m 0 0" fill="url(#a)"/>
    <path d="m 28 8 h 72 c 4.417969 0 8 3.316406 8 7.40625 v 85.1875 c 0 4.089844 -3.582031 7.40625 -8 7.40625 h -72 c -4.417969 0 -8 -3.316406 -8 -7.40625 v -85.1875 c 0 -4.089844 3.582031 -7.40625 8 -7.40625 z m 0 0" fill="#666666"/>
    <g fill="#ffffff">
        <path d="m 59.71875 21 h 7.5625 c 0.398438 0 0.71875 0.320312 0.71875 0.71875 v 29.0625 c 0 0.398438 -0.320312 0.71875 -0.71875 0.71875 h -7.5625 c -0.398438 0 -0.71875 -0.320312 -0.71875 -0.71875 v -29.0625 c 0 -0.398438 0.320312 -0.71875 0.71875 -0.71875 z m 0 0"/>
        <path d="m 94 9 h 9 v 98 h -9 z m 0 0"/>
        <path d="m 25 9 h 9 v 98 h -9 z m 0 0"/>
        <path d="m 59.71875 64.5 h 7.5625 c 0.398438 0 0.71875 0.320312 0.71875 0.71875 v 29.0625 c 0 0.398438 -0.320312 0.71875 -0.71875 0.71875 h -7.5625 c -0.398438 0 -0.71875 -0.320312 -0.71875 -0.71875 v -29.0625 c 0 -0.398438 0.320312 -0.71875 0.71875 -0.71875 z m 0 0"/>
    </g>
</svg>
