<?xml version="1.0" standalone="no"?>
<!DOCTYPE svg PUBLIC "-//W3C//DTD SVG 20010904//EN"
 "http://www.w3.org/TR/2001/REC-SVG-20010904/DTD/svg10.dtd">
<svg version="1.0" xmlns="http://www.w3.org/2000/svg"
 width="300.000000pt" height="369.000000pt" viewBox="0 0 300.000000 369.000000"
 preserveAspectRatio="xMidYMid meet">
<metadata>
Created by potrace 1.10, written by Peter Selinger 2001-2011
</metadata>
<g transform="translate(0.000000,369.000000) scale(0.100000,-0.100000)"
fill="#000000" stroke="none">
<path d="M5 3310 c0 -212 1 -298 2 -192 2 105 2 279 0 385 -1 105 -2 19 -2
-193z"/>
<path d="M2995 2485 c0 -665 1 -939 2 -608 2 331 2 875 0 1210 -1 334 -2 64
-2 -602z"/>
<path d="M1348 3606 c-32 -13 -59 -21 -62 -18 -10 9 -66 11 -66 2 0 -5 -8 -9
-17 -8 -49 4 -63 -3 -77 -37 -12 -27 -21 -35 -40 -35 -15 0 -26 4 -26 10 0 16
-34 28 -62 23 -37 -7 -56 -67 -31 -95 15 -17 15 -18 -6 -18 -12 0 -24 7 -27
15 -7 17 -43 11 -56 -9 -12 -17 -9 -61 4 -74 7 -7 9 -12 5 -12 -4 0 -3 -10 3
-22 7 -15 2 -12 -15 9 l-26 32 -45 -17 c-49 -18 -66 -11 -68 30 -1 19 -7 23
-31 23 -28 0 -30 -3 -30 -36 0 -37 -22 -89 -37 -89 -4 0 -8 -7 -8 -15 0 -8 -5
-15 -11 -15 -8 0 -10 -14 -5 -42 5 -40 5 -41 -9 -23 -8 11 -18 25 -22 30 -4 6
-8 19 -8 30 0 14 -8 21 -27 23 -33 4 -62 46 -63 91 0 19 -5 36 -11 38 -6 2
-30 -14 -53 -36 -36 -34 -40 -43 -31 -60 8 -16 6 -22 -10 -31 -11 -6 -20 -17
-20 -25 0 -8 -6 -15 -14 -15 -8 0 -16 -5 -18 -12 -4 -10 -13 -10 -43 -1 -32
10 -42 10 -55 -1 -21 -20 -86 -31 -95 -16 -5 8 -13 5 -26 -9 -11 -12 -26 -21
-34 -21 -25 0 -17 -47 11 -69 14 -11 23 -25 20 -30 -4 -5 6 -21 21 -35 21 -19
25 -28 16 -37 -6 -6 -9 -17 -7 -23 5 -12 -45 -41 -88 -50 -31 -7 -36 -27 -13
-50 8 -8 15 -21 15 -28 0 -19 21 -38 41 -38 10 0 19 -8 21 -17 4 -19 -17 -69
-33 -78 -5 -4 -5 -13 1 -25 5 -10 7 -25 5 -33 -3 -7 1 -20 10 -27 8 -7 15 -19
15 -26 0 -8 6 -14 13 -14 7 0 28 -8 47 -19 26 -13 42 -16 64 -10 52 15 61 -10
20 -54 -18 -19 -23 -34 -19 -48 6 -19 12 -20 53 -14 68 10 115 40 135 85 9 21
25 41 37 45 11 3 20 15 20 25 0 10 15 28 35 40 38 23 95 20 127 -7 9 -8 21
-12 27 -9 8 6 77 -34 91 -52 6 -9 74 -47 78 -44 1 1 11 2 21 2 28 0 58 -56 66
-122 3 -31 14 -67 24 -80 38 -51 52 -115 31 -148 -12 -20 8 -44 25 -30 21 17
47 1 41 -26 -5 -18 -1 -24 16 -29 22 -6 88 -72 88 -87 0 -3 3 -13 6 -22 3 -9
1 -16 -6 -16 -6 0 -9 4 -5 9 3 5 1 12 -5 16 -6 3 -10 -3 -10 -15 0 -20 4 -21
38 -16 50 9 96 -20 124 -79 12 -25 27 -44 32 -43 15 4 76 -43 76 -58 0 -20
119 -133 148 -140 32 -8 62 -32 62 -50 0 -22 20 -27 39 -10 22 20 36 20 72 -1
24 -15 31 -15 38 -4 14 23 44 -2 78 -67 23 -42 29 -62 21 -70 -6 -6 -17 -8
-24 -5 -9 3 -14 -2 -14 -16 0 -22 24 -29 36 -10 3 6 22 17 40 25 31 13 35 13
54 -6 19 -19 19 -20 -1 -30 -22 -12 -20 -37 2 -31 8 2 27 5 44 7 16 2 37 7 47
10 12 4 23 -6 38 -35 19 -38 19 -43 5 -65 -17 -25 -14 -29 58 -65 15 -8 27
-20 27 -27 0 -20 43 -25 63 -6 18 16 20 15 43 -13 13 -17 22 -34 20 -40 -5
-17 22 -96 40 -116 10 -12 21 -45 25 -81 4 -36 15 -72 27 -88 24 -32 19 -70
-9 -70 -24 0 -69 -21 -69 -32 0 -4 5 -16 11 -26 8 -12 6 -27 -5 -54 -17 -40
-26 -44 -57 -28 -14 8 -25 6 -44 -6 -19 -13 -29 -14 -37 -6 -9 9 -14 6 -23
-11 -7 -14 -18 -21 -31 -18 -41 7 -89 1 -100 -13 -15 -21 -94 -37 -131 -27
-21 6 -39 5 -60 -5 -35 -17 -83 -5 -83 21 0 12 -6 15 -20 10 -14 -4 -20 -2
-20 9 0 21 -14 27 -50 20 -21 -5 -35 -15 -41 -31 -11 -30 -40 -27 -54 5 -11
25 -35 30 -35 7 0 -9 -11 -20 -24 -24 -13 -5 -26 -19 -29 -30 -7 -28 -27 -27
-27 2 -1 21 -1 22 -15 3 -20 -27 -19 -34 8 -38 12 -2 21 -9 20 -15 -5 -21 16
-63 31 -63 7 0 17 -7 20 -15 4 -11 17 -15 41 -13 19 1 40 -3 47 -10 7 -7 20
-12 29 -12 10 0 24 -8 31 -18 13 -19 81 -63 131 -84 15 -7 27 -16 27 -20 0 -4
17 -7 38 -6 50 0 79 -18 103 -65 12 -23 27 -37 39 -37 10 0 22 -4 25 -10 3 -5
20 -9 38 -8 18 1 45 -2 61 -7 28 -8 29 -7 22 20 -8 31 15 75 40 75 19 0 9 39
-14 56 -10 7 -12 13 -4 18 15 9 4 36 -14 36 -16 0 -20 55 -5 64 5 3 12 20 15
38 3 18 26 64 51 103 39 60 45 66 45 42 0 -52 16 -67 70 -67 l49 0 26 53 c16
35 38 62 62 78 36 23 38 27 38 80 0 62 13 85 59 104 22 10 34 10 47 2 15 -9
22 -7 38 12 17 20 18 26 7 42 -7 10 -12 40 -11 66 2 46 1 49 -46 86 -27 20
-59 37 -73 37 -31 0 -44 42 -21 76 8 13 15 33 15 44 0 23 56 116 83 138 19 16
53 11 50 -6 -4 -19 72 -52 121 -52 48 0 56 -9 82 -94 6 -19 22 -36 46 -48 41
-21 58 -17 58 13 0 11 6 32 14 47 22 42 8 79 -50 138 -30 30 -54 57 -54 62 0
4 -28 20 -63 37 -34 16 -87 48 -117 71 -30 23 -86 53 -124 68 -119 47 -215 98
-222 119 -5 15 5 29 37 57 43 37 43 37 26 63 l-17 26 -123 -6 c-107 -5 -125
-3 -140 11 -9 9 -30 22 -47 27 -16 6 -30 17 -30 25 0 7 -10 19 -22 25 -42 22
-139 124 -159 166 -10 24 -25 64 -32 90 -7 27 -26 85 -42 131 -28 75 -33 84
-70 101 -22 11 -64 40 -93 65 -30 25 -64 49 -76 52 -32 8 -92 83 -105 130 -5
21 -13 65 -17 98 -6 55 -5 58 13 52 22 -7 37 6 48 42 5 17 1 27 -18 42 -28 22
-42 76 -28 111 5 15 23 29 47 38 22 7 56 24 76 37 21 13 44 24 51 24 8 0 22 9
32 20 15 17 19 17 32 5 19 -20 29 -19 52 4 19 19 20 19 36 1 9 -9 15 -23 13
-31 -4 -16 30 -25 44 -11 14 14 -6 47 -42 69 -20 12 -28 23 -24 33 12 30 9 45
-8 42 -24 -4 -23 11 2 33 28 26 25 42 -10 50 -16 4 -32 10 -35 14 -5 9 50 61
62 61 5 -1 9 8 11 19 4 22 -15 30 -81 37 -51 5 -139 20 -190 33 -42 10 -77 40
-77 66 0 8 -6 15 -14 15 -22 0 -29 31 -10 45 16 11 12 35 -4 35 -4 0 -33 -11
-64 -24z m55 -3 c-21 -8 -16 -54 7 -60 11 -3 20 -12 20 -20 0 -8 7 -21 15 -29
33 -33 -1 -57 -44 -31 -26 15 -27 15 -39 -13 -8 -16 -22 -32 -32 -35 -10 -3
-18 -14 -18 -23 0 -9 -2 -24 -6 -33 -4 -10 -1 -23 8 -32 26 -26 20 -55 -11
-59 -22 -2 -28 -8 -27 -25 1 -23 -20 -32 -30 -14 -8 12 -56 -11 -56 -26 0 -7
-6 -10 -13 -7 -8 3 -18 -11 -28 -38 -12 -33 -21 -42 -44 -45 -26 -4 -27 -2
-22 26 6 28 4 31 -19 31 -14 0 -34 -5 -44 -10 -13 -7 -21 -6 -27 2 -12 19 -12
71 -1 85 5 7 11 32 11 55 1 24 9 48 17 56 13 10 12 15 -10 33 -14 12 -24 28
-22 36 2 8 -2 20 -8 28 -11 13 -4 65 9 65 3 0 16 3 29 6 16 5 22 2 22 -10 0
-10 9 -16 24 -16 13 0 32 -3 40 -6 12 -4 20 4 31 29 8 20 20 39 26 43 6 3 43
7 82 8 42 1 87 9 107 19 19 9 42 16 50 16 10 0 11 -2 3 -6z m31 -165 c12 2 25
8 31 13 11 11 46 11 63 0 10 -6 0 -21 -37 -59 -49 -50 -66 -92 -37 -92 16 0
29 -27 17 -35 -22 -13 -18 -57 9 -87 26 -28 30 -29 71 -21 43 9 44 8 54 -22
10 -29 9 -31 -40 -57 -41 -22 -51 -24 -58 -12 -7 12 -13 12 -40 -2 -40 -21
-76 -59 -72 -76 10 -40 19 -58 29 -58 7 0 13 -7 14 -15 1 -8 3 -21 4 -29 1 -8
12 -17 26 -21 l25 -6 -22 -21 c-21 -18 -23 -19 -34 -4 -19 26 -117 33 -150 11
-25 -16 -28 -16 -59 6 -18 13 -43 33 -56 45 -13 13 -30 20 -37 18 -7 -3 -18 4
-24 15 -6 11 -25 28 -41 38 -17 10 -28 23 -26 30 3 6 -2 17 -10 23 -19 17 -18
33 7 81 11 23 18 43 15 46 -2 3 -14 -13 -25 -36 -22 -43 -27 -86 -11 -96 5 -3
7 -11 4 -18 -2 -7 16 -27 41 -45 25 -17 45 -36 45 -42 0 -5 9 -10 20 -10 11 0
20 -4 20 -9 0 -5 10 -11 22 -14 31 -8 17 -19 -29 -22 -21 -1 -45 -5 -54 -9
-10 -4 -23 0 -33 10 -16 15 -18 15 -36 -1 -18 -17 -22 -16 -67 5 -26 12 -58
26 -70 31 -13 5 -23 13 -23 18 0 5 -9 11 -20 14 -13 3 -20 0 -20 -9 0 -14 -19
-14 -53 1 -10 4 -29 3 -42 -3 -30 -14 -60 -79 -45 -97 7 -9 8 -15 1 -19 -6 -4
-8 -13 -4 -21 3 -8 0 -15 -6 -15 -6 0 -11 7 -11 15 0 8 -11 25 -25 39 -14 14
-25 30 -25 36 0 5 -4 10 -10 10 -5 0 -10 6 -10 13 0 9 -11 12 -35 9 -26 -3
-35 0 -35 10 0 8 -9 32 -19 54 -21 42 -9 62 16 28 13 -18 14 -18 19 4 4 13 14
22 25 22 24 0 24 11 -2 43 -11 15 -22 37 -24 49 -3 13 -9 24 -15 26 -15 5 -11
64 5 86 8 11 15 28 15 38 0 11 5 15 14 12 7 -3 13 -11 13 -17 -1 -26 28 -77
44 -77 19 0 36 33 20 38 -14 5 -14 42 -1 42 6 0 10 7 10 15 0 8 4 15 8 15 15
0 42 59 42 94 0 43 20 41 37 -4 15 -39 38 -47 73 -26 37 21 44 20 60 -9 7 -14
21 -25 30 -25 14 0 17 9 16 40 0 25 -5 40 -13 40 -18 0 -16 35 2 50 13 10 19
10 33 -4 10 -9 21 -14 24 -11 3 3 11 -1 18 -10 7 -8 19 -15 26 -15 8 0 14 -7
14 -15 0 -8 -4 -15 -9 -15 -5 0 -12 -24 -15 -52 -3 -29 -8 -72 -12 -95 -8 -53
14 -82 49 -65 12 6 29 10 39 10 13 -1 14 -6 7 -24 -6 -18 -4 -26 9 -32 32 -16
64 1 81 44 9 24 21 39 29 37 6 -3 12 2 12 10 0 17 34 29 47 16 15 -15 44 1 38
20 -4 12 4 21 27 32 26 11 32 19 30 38 -1 13 -8 29 -15 35 -11 9 -11 18 -2 44
6 18 14 30 17 27 3 -4 14 7 24 24 15 25 20 28 32 18 9 -7 25 -10 36 -9z m156
-4 c8 -1 43 -4 78 -8 34 -3 74 -9 87 -12 26 -6 35 -24 12 -24 -16 0 -67 -47
-67 -63 0 -17 13 -32 28 -33 45 -4 44 -3 18 -35 -27 -32 -27 -49 1 -49 10 0
13 -6 9 -16 -3 -9 -6 -21 -6 -27 0 -7 -7 -20 -14 -29 -12 -17 -15 -17 -46 -1
-26 12 -37 13 -51 4 -26 -16 -29 -14 -29 14 0 24 -1 24 -60 19 -49 -4 -60 -2
-60 10 0 8 -5 16 -12 18 -10 4 -10 13 0 44 11 35 10 41 -9 56 -25 21 -17 39
40 88 23 19 41 41 41 48 0 8 5 10 12 6 7 -5 19 -9 28 -10z m-1122 -82 c-2 -26
36 -92 54 -92 13 0 9 -32 -6 -49 -22 -26 -27 -66 -11 -87 8 -10 15 -26 15 -35
0 -9 9 -28 20 -42 l21 -26 -21 -21 c-11 -11 -20 -15 -20 -10 0 13 -37 13 -45
0 -4 -6 -1 -17 5 -25 7 -8 9 -15 5 -15 -4 0 0 -11 9 -25 9 -13 16 -31 16 -40
0 -10 10 -15 31 -15 28 0 64 -22 53 -32 -2 -3 9 -15 26 -28 23 -17 30 -31 30
-56 l0 -33 -30 17 c-30 17 -30 17 -53 -11 -19 -25 -29 -28 -86 -31 -61 -2 -66
-4 -87 -37 -13 -19 -23 -43 -23 -53 -1 -20 -27 -45 -48 -46 -6 0 -18 7 -26 15
-12 11 -22 12 -45 4 -51 -17 -160 42 -147 80 3 7 1 19 -5 26 -12 15 9 65 28
65 8 0 10 9 6 28 -9 35 -24 54 -39 48 -15 -5 -35 13 -35 32 0 7 -7 21 -16 30
-15 15 -15 16 2 23 11 3 23 4 27 2 5 -3 16 2 25 10 9 7 24 17 33 20 14 4 28
41 33 82 1 5 10 11 21 13 11 2 25 8 31 13 6 5 28 7 49 4 21 -2 46 0 57 6 18
10 20 18 14 63 -7 60 1 96 20 96 8 0 18 8 21 18 4 9 13 22 21 28 9 7 13 20 9
33 -3 15 2 27 19 40 13 10 24 24 24 30 0 6 5 11 10 11 6 0 9 -12 8 -28z m-184
-149 c4 -5 13 -8 19 -8 7 0 16 -24 20 -54 11 -66 -3 -83 -58 -71 -24 5 -38 4
-45 -5 -13 -15 -64 -27 -85 -19 -9 4 -15 18 -15 35 0 19 -5 29 -15 29 -8 0
-19 9 -25 20 -9 17 -7 22 15 32 14 6 25 16 25 22 0 6 4 5 9 -3 8 -13 16 -13
53 -1 24 7 47 17 53 22 11 10 39 10 49 1z m610 -333 c7 0 31 -9 54 -20 46 -22
68 -25 77 -10 4 7 13 6 27 -1 11 -6 31 -8 46 -3 15 4 34 6 43 5 9 -1 28 3 43
9 15 5 25 6 22 2 -2 -4 9 -14 26 -21 27 -12 34 -12 60 4 23 13 41 16 84 10 57
-7 59 -9 45 -48 -11 -29 11 -168 32 -200 8 -13 31 -39 51 -59 40 -40 44 -53
20 -62 -10 -4 -19 4 -28 25 -8 19 -16 27 -20 20 -4 -6 -18 -11 -31 -11 -13 0
-27 -5 -30 -10 -4 -6 -11 -8 -16 -5 -5 4 -12 -7 -15 -24 -4 -17 -8 -31 -10
-31 -2 0 -25 10 -50 22 -47 22 -50 28 -33 87 3 9 -8 18 -31 25 -19 5 -38 13
-41 18 -7 11 -69 -11 -69 -24 0 -5 -13 -7 -30 -3 -19 4 -30 3 -30 -4 0 -7 -9
-6 -24 4 -13 8 -31 13 -40 9 -11 -4 -27 3 -45 20 -16 15 -35 28 -42 30 -23 3
-62 28 -79 49 -20 24 -70 17 -70 -11 -1 -16 -1 -16 -11 1 -7 11 -17 16 -29 12
-15 -5 -17 -2 -13 14 5 21 1 24 -49 35 -29 7 -39 26 -14 26 15 0 28 59 16 75
-4 6 0 24 10 40 16 28 20 30 73 27 37 -2 57 1 57 8 0 7 12 2 26 -9 15 -12 32
-21 38 -21z m-275 -144 c6 -7 29 -13 50 -13 49 0 66 -10 51 -28 -16 -19 -5
-34 20 -28 19 5 69 -40 70 -63 0 -6 13 -17 30 -24 16 -7 27 -17 24 -22 -4 -6
-10 -6 -17 1 -6 6 -17 11 -25 11 -7 0 -41 19 -74 41 -34 23 -68 43 -77 44 -15
1 -24 4 -76 24 -11 5 -28 7 -37 5 -28 -4 -88 -44 -88 -59 0 -8 -13 -23 -29
-34 -16 -12 -32 -34 -36 -49 -6 -27 -45 -59 -83 -67 -9 -2 -29 -6 -43 -10 -19
-5 -28 -2 -32 9 -4 9 -3 16 1 16 4 0 18 16 31 36 19 27 30 35 48 31 15 -3 23
1 23 9 0 8 7 14 15 14 8 0 15 9 15 19 0 32 41 93 57 87 8 -4 20 -3 26 1 7 5
30 8 51 9 30 0 44 7 60 27 25 30 30 32 45 13z m233 -66 c7 -11 18 -20 24 -20
6 0 17 -7 24 -15 7 -8 20 -15 28 -15 9 0 30 -14 48 -31 27 -26 35 -29 52 -20
15 8 23 7 32 -4 14 -17 40 -20 40 -5 0 7 6 8 16 2 21 -12 54 -4 54 13 0 21 36
23 61 4 13 -10 30 -19 37 -19 14 0 17 -20 2 -20 -18 0 -11 -28 15 -58 25 -30
67 -45 120 -44 17 1 24 -2 17 -7 -6 -4 -23 -29 -36 -55 l-24 -48 25 -24 c24
-22 20 -30 -11 -25 -5 1 -17 -6 -27 -15 -16 -14 -18 -26 -13 -65 6 -45 5 -48
-25 -63 -27 -14 -30 -21 -26 -46 4 -25 2 -30 -21 -36 -20 -5 -24 -11 -20 -29
5 -18 1 -24 -16 -28 -27 -7 -70 2 -63 13 8 12 -53 90 -80 102 -14 6 -25 19
-25 28 0 24 -26 43 -48 38 -17 -5 -18 0 -14 44 5 49 -6 83 -36 120 -8 9 -16
34 -18 55 -9 82 -15 101 -39 123 -14 13 -25 32 -25 42 0 10 -4 18 -8 18 -10 0
-38 24 -65 56 -17 20 -17 23 -2 38 22 21 32 20 47 -4z m608 -167 c0 -5 13 -15
28 -24 23 -13 32 -14 45 -4 10 7 17 17 17 24 0 19 19 12 57 -22 57 -50 106
-85 126 -88 19 -4 37 -45 77 -171 l18 -57 -24 -16 c-13 -8 -33 -15 -44 -15
-12 0 -32 -12 -45 -27 -13 -16 -25 -22 -25 -15 0 6 -8 12 -17 12 -13 0 -14 3
-5 12 26 26 1 48 -57 52 -15 1 -28 36 -37 96 -3 19 -9 39 -14 44 -6 6 -10 18
-10 28 0 14 -6 16 -29 12 -20 -4 -30 -2 -34 10 -4 9 -13 16 -22 16 -8 0 -14 6
-12 13 1 6 -6 12 -15 12 -29 0 -32 14 -4 24 32 13 32 15 0 36 -22 14 -28 15
-35 4 -6 -10 -9 -10 -9 -2 0 16 40 53 57 53 7 0 13 -3 13 -7z m-24 -129 c-3
-7 8 -17 25 -23 16 -5 29 -15 29 -21 0 -6 10 -8 23 -5 25 7 25 6 60 -120 12
-46 26 -67 38 -60 4 3 19 3 33 -1 24 -6 25 -7 11 -34 -8 -16 -26 -31 -42 -35
-34 -8 -85 -54 -76 -68 4 -6 -1 -8 -11 -4 -13 5 -19 1 -23 -13 -8 -28 -27 -19
-31 14 -3 21 -7 26 -23 21 -13 -4 -19 -2 -19 8 0 8 -8 25 -19 38 -15 19 -22
21 -33 11 -17 -14 -39 3 -31 24 3 8 1 14 -5 14 -6 0 -4 17 5 42 10 28 11 44 3
52 -19 19 -10 33 35 50 26 10 45 24 45 33 0 8 -6 13 -12 11 -7 -3 -18 1 -25 8
-10 9 -9 18 2 41 14 28 51 43 41 17z m506 -401 c36 -35 70 -63 76 -63 18 0 14
-32 -8 -60 -11 -14 -20 -31 -20 -37 0 -19 -13 -16 -27 6 -7 11 -21 17 -35 16
-13 -1 -29 -3 -37 -4 -9 -1 -11 -9 -7 -26 6 -21 2 -25 -31 -31 -23 -4 -43 -2
-56 5 -13 9 -23 9 -29 3 -14 -14 -55 5 -61 29 -5 20 -66 61 -79 53 -9 -6 -11
20 -2 29 3 3 17 1 31 -6 21 -9 27 -8 39 8 19 25 18 32 -6 40 -11 3 -23 18 -27
33 -3 15 -9 29 -13 32 -4 3 -4 15 1 28 7 18 14 22 29 17 15 -5 22 0 30 17 15
36 38 61 52 56 7 -3 24 4 37 14 l25 19 27 -58 c17 -37 50 -80 91 -120z m-610
125 c-3 -21 28 -39 55 -32 16 4 22 0 27 -20 3 -14 15 -30 26 -36 11 -6 20 -16
20 -23 0 -7 8 -17 19 -24 16 -10 24 -5 62 39 24 27 63 59 87 70 40 19 45 20
60 4 15 -15 14 -16 -10 -16 -20 0 -28 -7 -36 -30 -7 -18 -7 -32 -1 -35 5 -4 9
-15 9 -26 0 -10 9 -24 20 -31 31 -20 26 -42 -9 -35 -31 7 -51 -7 -51 -35 0
-12 7 -18 22 -18 12 0 37 -18 60 -42 34 -37 44 -42 89 -45 75 -4 96 -44 52
-95 -9 -10 -13 -24 -10 -32 12 -31 -31 -37 -134 -20 -22 4 -39 2 -43 -5 -10
-15 -26 -14 -26 2 0 19 -29 43 -60 50 -27 7 -140 110 -140 127 0 15 -72 80
-87 80 -7 0 -22 18 -32 39 -11 21 -33 48 -48 60 -23 17 -25 20 -9 21 14 0 17
6 14 24 -4 18 0 26 14 29 19 6 41 50 27 55 -18 7 -8 19 14 18 15 -1 21 -7 19
-18z m762 -252 c34 -20 39 -29 39 -58 0 -42 -9 -59 -28 -51 -11 4 -15 -3 -15
-26 0 -28 -8 -36 -33 -32 -4 1 -15 -5 -23 -14 -21 -20 -43 -19 -79 5 -42 28
-75 26 -75 -2 0 -19 -2 -20 -10 -8 -6 8 -7 27 -4 42 3 14 0 29 -5 33 -18 10
-12 25 9 25 19 0 22 4 24 33 1 6 7 18 13 25 15 16 53 -1 53 -23 0 -27 19 -16
50 30 17 25 34 45 38 45 4 0 25 -11 46 -24z m297 -38 c10 -19 8 -25 -17 -45
-16 -13 -32 -23 -35 -23 -14 0 -18 -31 -7 -55 11 -25 123 -85 236 -127 31 -11
82 -40 112 -63 30 -23 78 -53 105 -66 58 -28 172 -137 181 -175 4 -14 1 -37
-5 -50 -6 -14 -11 -34 -11 -44 0 -24 -1 -24 -44 -6 -25 10 -36 22 -41 45 -13
61 -33 88 -70 95 -20 4 -40 4 -45 1 -5 -3 -26 3 -47 14 -21 11 -34 20 -29 21
16 0 -27 40 -44 40 -9 0 -25 -9 -34 -19 -15 -17 -21 -18 -38 -8 -15 9 -18 19
-14 44 5 37 -11 56 -46 53 -42 -4 -48 0 -69 35 -12 19 -25 33 -29 30 -5 -3
-16 -2 -25 1 -11 4 -13 9 -6 14 7 4 3 14 -11 27 -20 19 -29 20 -68 13 -25 -5
-61 -5 -80 -1 -29 6 -34 11 -32 29 2 16 -4 25 -23 32 -17 6 -25 16 -22 24 3 8
-3 22 -14 32 -25 23 -24 37 4 49 17 8 22 18 22 50 l0 39 93 2 c51 1 96 5 99 8
14 13 43 5 54 -16z m-443 -148 c36 -22 62 -25 92 -10 11 6 28 14 39 19 22 11
41 -4 41 -32 0 -10 9 -21 20 -24 13 -3 20 -14 20 -28 0 -26 22 -48 41 -40 22
8 41 -10 37 -36 -2 -16 -9 -23 -21 -21 -9 2 -20 -4 -23 -12 -7 -19 38 -112 78
-160 22 -26 29 -40 21 -43 -7 -3 -13 -13 -13 -24 0 -11 -8 -22 -17 -25 -10 -3
-28 -11 -40 -16 -18 -9 -27 -6 -54 21 -17 18 -34 29 -37 27 -13 -14 -32 19
-27 48 8 46 -32 112 -66 108 -40 -4 -54 -8 -67 -16 -11 -7 -11 -4 -1 11 10 17
9 23 -10 42 -12 12 -30 21 -39 20 -35 -3 -41 2 -72 59 -24 44 -29 61 -21 74 6
10 11 27 11 37 0 11 5 23 10 26 6 3 10 -1 10 -9 0 -9 7 -16 15 -16 8 0 15 9
15 20 0 25 16 25 58 0z m412 -132 c0 -5 -6 -8 -12 -8 -20 -1 24 -30 44 -30 10
0 18 -6 18 -13 0 -25 41 -52 79 -52 35 0 36 -1 39 -42 2 -29 8 -43 18 -43 19
0 18 -22 -3 -59 -12 -20 -26 -31 -40 -31 -24 0 -49 -21 -58 -49 -6 -21 -68
-38 -73 -21 -6 18 -54 33 -63 19 -4 -6 -12 -8 -18 -5 -14 9 -3 57 18 73 14 10
10 18 -28 62 -23 29 -44 58 -45 65 -1 8 -7 20 -12 27 -19 25 -24 49 -10 49 21
0 47 35 40 54 -5 13 0 16 24 16 17 0 34 4 37 10 6 10 45 -9 45 -22z m145 -317
c-1 -17 -9 -41 -19 -55 -28 -44 -1 -96 49 -96 9 0 35 -15 58 -32 40 -31 42
-35 40 -83 -1 -27 2 -54 7 -60 14 -17 -5 -38 -28 -31 -25 8 -80 -14 -106 -42
-15 -17 -18 -32 -14 -72 5 -46 3 -53 -20 -68 -38 -26 -82 -75 -82 -92 0 -29
-18 -42 -59 -46 -36 -3 -43 0 -50 19 -13 34 -6 70 14 77 10 3 26 26 35 51 16
39 16 46 3 61 -13 14 -12 17 9 24 13 4 31 8 41 9 36 3 49 55 22 85 -9 10 -20
46 -26 81 -6 37 -20 79 -34 99 -15 22 -27 57 -31 93 -7 56 -6 57 17 54 12 -2
25 -9 27 -15 8 -25 88 -9 97 19 7 21 32 49 45 49 4 0 7 -13 5 -29z m-255 -579
c0 -4 -22 -43 -50 -85 -27 -42 -50 -86 -50 -97 0 -12 -7 -32 -16 -45 -17 -26
-13 -75 6 -75 6 0 10 -9 10 -19 0 -11 6 -26 14 -34 12 -12 10 -20 -15 -56 -21
-32 -26 -48 -19 -61 8 -15 5 -16 -33 -7 -99 22 -113 29 -124 57 -14 37 -53 61
-116 71 -28 5 -63 18 -77 29 -14 11 -38 26 -55 33 -16 8 -36 21 -43 30 -22 26
-101 60 -128 54 -16 -3 -28 1 -31 9 -3 8 -11 14 -19 14 -7 0 -17 15 -22 32
-10 40 5 74 42 93 21 11 27 11 37 -1 22 -26 69 -14 81 21 1 6 7 9 12 7 4 -1
15 3 23 9 11 10 15 8 20 -9 3 -12 12 -22 20 -22 7 0 23 -9 35 -20 23 -21 72
-27 83 -10 3 5 25 7 49 4 54 -8 142 12 150 33 5 12 16 14 54 9 39 -5 57 -2 97
18 55 27 65 30 65 18z"/>
<path d="M5 1435 c0 -792 1 -1115 2 -717 2 398 2 1046 0 1440 -1 394 -2 69 -2
-723z"/>
<path d="M956 2133 c-3 -3 -18 -8 -32 -9 -15 -2 -31 -7 -37 -13 -15 -15 3 -33
31 -30 15 2 33 0 40 -4 6 -5 12 -7 13 -5 12 44 3 79 -15 61z"/>
<path d="M705 1593 c-4 -13 -8 -14 -17 -5 -18 18 -51 15 -44 -3 4 -10 -2 -19
-18 -25 -13 -4 -32 -19 -42 -32 -39 -47 -82 -70 -122 -63 -41 6 -34 -9 9 -19
19 -4 34 0 52 14 14 11 30 20 35 20 5 0 22 16 36 35 15 19 34 35 42 35 8 0 17
6 20 14 6 16 45 9 57 -10 4 -7 13 -11 20 -9 8 3 12 -6 13 -25 1 -16 -4 -30
-10 -30 -6 0 0 -6 14 -13 14 -7 25 -17 26 -22 2 -21 16 -71 25 -87 13 -25 12
-32 -11 -58 -29 -33 -36 -68 -18 -86 11 -12 13 -27 7 -67 -4 -29 -10 -81 -13
-117 -10 -128 -24 -153 -63 -114 -16 16 -59 16 -80 1 -7 -5 -13 -22 -13 -37 0
-33 -29 -63 -49 -50 -8 4 -19 7 -25 5 -12 -4 -78 90 -69 99 5 5 10 48 14 115
0 13 7 31 15 39 17 16 15 53 -2 59 -7 2 -10 -6 -7 -22 3 -15 1 -25 -6 -25 -6
0 -11 -17 -11 -38 0 -21 -3 -42 -7 -46 -11 -10 -12 -100 -1 -113 7 -8 4 -11
-10 -10 -12 0 -18 6 -15 14 4 9 0 11 -11 7 -21 -8 -20 -25 2 -31 10 -2 23 -17
29 -31 l10 -27 11 25 10 25 17 -39 c12 -28 19 -36 27 -28 7 7 17 8 28 2 24
-13 71 37 68 71 -2 18 2 24 15 23 9 -1 17 2 17 7 0 5 18 -1 40 -12 44 -23 60
-19 60 17 0 13 5 24 11 24 5 0 8 4 5 8 -2 4 -1 41 4 82 18 152 20 179 10 185
-14 9 -12 51 3 67 25 25 39 59 29 71 -22 28 -33 96 -18 115 7 10 6 13 -5 12
-7 -1 -21 -2 -29 -1 -13 1 -13 2 0 11 10 7 12 12 4 18 -6 4 -14 17 -18 30 -4
12 -11 20 -16 17 -4 -3 -6 3 -3 14 6 23 -23 36 -32 14z"/>
<path d="M426 1541 c-16 -18 -25 -62 -29 -141 -2 -30 1 -35 20 -34 20 0 31
-18 38 -61 0 -5 4 -17 7 -25 12 -30 15 -69 5 -73 -21 -7 -17 -77 4 -77 5 0 7
11 3 25 -3 14 -2 31 3 38 13 16 15 97 2 97 -5 0 -9 8 -9 18 0 26 -23 72 -37
72 -17 0 -26 55 -14 79 6 11 11 27 11 37 0 9 8 23 18 30 12 9 14 16 6 24 -7 7
-15 5 -28 -9z"/>
<path d="M2995 585 c0 -324 1 -456 2 -292 2 164 2 430 0 590 -1 161 -2 27 -2
-298z"/>
<path d="M2084 706 c-6 -17 12 -56 26 -56 13 0 13 17 0 25 -5 3 -7 12 -4 19 3
8 1 17 -5 21 -6 3 -14 0 -17 -9z"/>
<path d="M1337 184 c-10 -10 12 -44 28 -44 20 0 19 36 -1 44 -19 7 -19 7 -27
0z"/>
</g>
</svg>
